<?xml version="1.0" encoding="utf-8"?>
<!-- Generator: Adobe Illustrator 16.0.0, SVG Export Plug-In . SVG Version: 6.00 Build 0)  -->
<!DOCTYPE svg PUBLIC "-//W3C//DTD SVG 1.1//EN" "http://www.w3.org/Graphics/SVG/1.1/DTD/svg11.dtd">
<svg version="1.1" id="Layer_1" xmlns="http://www.w3.org/2000/svg" xmlns:xlink="http://www.w3.org/1999/xlink" x="0px" y="0px"
	 width="155px" height="125px" viewBox="0 0 155 125" enable-background="new 0 0 155 125" xml:space="preserve">
<g>
	<path fill="#FFFF00" d="M1.489,0.576h3.793v30.099h18.913v3.504H1.489V0.576z"/>
	<path fill="#FFFF00" d="M111.556,15.554c7.488,1.632,10.944,4.368,10.944,9.553c0,5.809-4.8,9.553-11.473,9.553
		c-5.328,0-9.697-1.776-13.729-5.376l2.353-2.784c3.504,3.168,6.864,4.752,11.521,4.752c4.513,0,7.489-2.352,7.489-5.761
		c0-3.168-1.681-4.944-8.737-6.432c-7.729-1.68-11.28-4.177-11.28-9.745c0-5.376,4.656-9.217,11.041-9.217
		c4.896,0,8.4,1.392,11.809,4.128l-2.208,2.928c-3.12-2.544-6.24-3.648-9.697-3.648c-4.368,0-7.152,2.4-7.152,5.473
		C102.435,12.193,104.163,13.969,111.556,15.554z"/>
	<path fill="#FFFF00" d="M154.761,4.033h-20.498v11.473h18.338v3.457h-18.338v11.761H155v3.457h-24.53V0.576h24.291V4.033z"/>
	<path fill="#FFFF00" d="M41.275,64.303v15.121h-3.793V45.82h3.793V60.75h19.394V45.82h3.792v33.604h-3.792V64.303H41.275z"/>
	<path fill="#FFFF00" d="M105.692,79.424h-4.08l-3.937-8.881H79.387l-3.984,8.881h-3.889l15.313-33.843h3.552L105.692,79.424z
		 M88.556,49.997l-7.681,17.138h15.312L88.556,49.997z"/>
	<path fill="#FFFF00" d="M116.442,45.82v33.604h-3.792V45.82H116.442z"/>
	<path fill="#FFFF00" d="M151.304,45.82H155v33.604h-3.024l-21.698-27.555v27.555h-3.696V45.82h3.553l21.17,26.931V45.82z"/>
	<path fill="#FFFF00" d="M26.74,99.798c0,4.417-2.688,6.673-5.329,7.825c3.984,1.199,7.201,3.504,7.201,8.16
		c0,5.809-4.849,9.217-12.193,9.217H1.489V91.396h14.306C22.42,91.396,26.74,94.662,26.74,99.798z M22.899,100.326
		c0-3.361-2.64-5.521-7.44-5.521H5.234v11.57h9.937C19.731,106.375,22.899,104.311,22.899,100.326z M24.771,115.543
		c0-3.696-3.072-5.809-8.929-5.809H5.234v11.857h11.28C21.604,121.592,24.771,119.336,24.771,115.543z"/>
	<path fill="#FFFF00" d="M41.274,91.396V125h-3.792V91.396H41.274z"/>
	<path fill="#FFFF00" d="M79.141,125h-4.753l-12.913-16.273l-7.152,7.248V125h-3.793V91.396h3.793v20.066L73.62,91.396h4.896
		l-14.401,14.689L79.141,125z"/>
	<path fill="#FFFF00" d="M109.332,94.854H88.834v11.473h18.338v3.457H88.834v11.76h20.737V125h-24.53V91.396h24.291V94.854z"/>
	<g>
		<g>
			<path fill="#FFFF00" d="M44.643,34.755c-9.696,0-16.849-7.633-16.849-17.33C27.794,7.825,34.898,0,44.787,0
				c6.097,0,9.745,2.161,13.105,5.329L55.3,8.113c-2.832-2.688-6-4.608-10.561-4.608c-7.44,0-13.01,6-13.01,13.825
				s5.617,13.921,13.01,13.921c4.608,0,7.633-1.776,10.849-4.849l2.496,2.448C54.58,32.403,50.739,34.755,44.643,34.755z"/>
			<g>
				<path fill="#FFFF00" d="M75.221,34.755c-10.225,0-17.089-8.017-17.089-17.33S65.092,0,75.317,0
					c10.225,0,17.089,8.017,17.089,17.33C92.406,26.643,85.446,34.755,75.221,34.755z M75.221,3.504
					c-7.681,0-13.153,6.145-13.153,13.825s5.569,13.921,13.25,13.921S88.47,25.106,88.47,17.426S82.901,3.504,75.221,3.504z"/>
				<path fill="#FFFF00" d="M66.688,17.347c0,4.992,3.62,9.049,8.612,9.049s8.549-3.994,8.549-8.986
					c0-4.993-3.619-9.049-8.611-9.049S66.688,12.354,66.688,17.347z"/>
			</g>
			<path fill="#FFFF00" d="M36.35,17.347c0,4.992,3.62,9.049,8.612,9.049s8.549-3.994,8.549-8.986c0-4.993-3.619-9.049-8.611-9.049
				S36.35,12.354,36.35,17.347z"/>
		</g>
	</g>
	<g>
		<g>
			<path fill="#FFFF00" d="M16.849,80C7.152,80,0,72.367,0,62.67c0-9.601,7.104-17.426,16.993-17.426
				c6.097,0,9.745,2.161,13.105,5.329l-2.593,2.784c-2.832-2.688-6-4.608-10.561-4.608c-7.44,0-13.01,6-13.01,13.825
				c0,7.824,5.617,13.922,13.01,13.922c4.608,0,7.633-1.777,10.849-4.85l2.496,2.449C26.786,77.647,22.945,80,16.849,80z"/>
		</g>
	</g>
	<path fill="#FFFF00" d="M126.451,109.783c-5.142,0-9.023-4.188-9.023-9.159c0-5.005,3.882-9.228,9.023-9.228
		c3.337,0,5.414,1.396,7.048,3.133l-1.736,1.839c-1.396-1.464-2.962-2.655-5.345-2.655c-3.576,0-6.3,3.029-6.3,6.843
		c0,3.848,2.792,6.878,6.469,6.878c2.247,0,3.984-1.123,5.38-2.622l1.668,1.567C131.865,108.354,129.754,109.783,126.451,109.783z"
		/>
	<path fill="#FFFF00" d="M145.773,109.783c-5.277,0-9.125-4.154-9.125-9.159s3.881-9.228,9.193-9.228
		c5.277,0,9.158,4.154,9.158,9.159S151.085,109.783,145.773,109.783z M145.773,93.713c-3.813,0-6.436,3.029-6.436,6.843
		s2.793,6.878,6.504,6.878c3.812,0,6.469-3.03,6.469-6.81C152.311,96.776,149.484,93.713,145.773,93.713z"/>
</g>
</svg>
